# xmcd
#
# Track frame offsets: 
#        150
#        22800
#        51514
#        71647
#        93100
#        111950
#        130430
#        147002
#        169732
#        190872
#
# Disc length: 2880 seconds
#
# Revision: 0
# Processed by: cddbd v1.5.2PL0 Copyright (c) Steve Scherf et al.
# Submitted via: ExactAudioCopy v1.0b3
#
DISCID=880b3e0a
DTITLE=Phuong Lam - Canh Thu Mua Ha
DYEAR=1993
DGENRE=
TTITLE0=Tren nhip cau tre
TTITLE1=Phuong Lam, Son Tuyen - Toi van nho
TTITLE2=Hoa su nha nang
TTITLE3=Tram nam ben cu
TTITLE4=Canh thu mua ha
TTITLE5=Trong con hy vong
TTITLE6=Mua dem doc hanh
TTITLE7=Giot le dai trang
TTITLE8=Buom trang
TTITLE9=Nhu mot con me
EXTD=
EXTT0=
EXTT1=
EXTT2=
EXTT3=
EXTT4=
EXTT5=
EXTT6=
EXTT7=
EXTT8=
EXTT9=
PLAYORDER=
